<svg xmlns="http://www.w3.org/2000/svg" xmlns:xlink="http://www.w3.org/1999/xlink" width="500" zoomAndPan="magnify" viewBox="0 0 375 374.999991" height="500" preserveAspectRatio="xMidYMid meet" version="1.0"><defs><g/><clipPath id="959f58e678"><path d="M 218 58 L 233 58 L 233 74 L 218 74 Z M 218 58 " clip-rule="nonzero"/></clipPath><clipPath id="70b1a02279"><path d="M 226.164062 73.742188 L 218.355469 63.445312 L 224.632812 58.6875 L 232.441406 68.984375 Z M 226.164062 73.742188 " clip-rule="nonzero"/></clipPath><clipPath id="a8f7db7b63"><path d="M 226.164062 73.742188 L 218.363281 63.457031 L 224.640625 58.695312 L 232.441406 68.984375 Z M 226.164062 73.742188 " clip-rule="nonzero"/></clipPath><clipPath id="86411c02b6"><path d="M 175 60 L 231 60 L 231 100 L 175 100 Z M 175 60 " clip-rule="nonzero"/></clipPath><clipPath id="6248564bb5"><path d="M 175.949219 85.863281 L 223.046875 60.109375 L 230.414062 73.578125 L 183.316406 99.335938 Z M 175.949219 85.863281 " clip-rule="nonzero"/></clipPath><clipPath id="9629c2e236"><path d="M 175.949219 85.863281 L 222.996094 60.136719 L 230.363281 73.605469 L 183.316406 99.335938 Z M 175.949219 85.863281 " clip-rule="nonzero"/></clipPath><clipPath id="a7a52baf0f"><path d="M 222.710938 60.015625 L 225.972656 60.015625 L 225.972656 113.636719 L 222.710938 113.636719 Z M 222.710938 60.015625 " clip-rule="nonzero"/></clipPath><clipPath id="b95089e29d"><path d="M 215.847656 79.371094 L 271.988281 79.371094 L 271.988281 196.28125 L 215.847656 196.28125 Z M 215.847656 79.371094 " clip-rule="nonzero"/></clipPath><clipPath id="5490d6b5a9"><path d="M 270.925781 110.699219 L 297.4375 110.699219 L 297.4375 205.007812 L 270.925781 205.007812 Z M 270.925781 110.699219 " clip-rule="nonzero"/></clipPath><clipPath id="8c8192c78e"><path d="M 146 35 L 187 35 L 187 78 L 146 78 Z M 146 35 " clip-rule="nonzero"/></clipPath><clipPath id="f16ac99f69"><path d="M 171.277344 77.292969 L 146.328125 49.6875 L 161.660156 35.832031 L 186.609375 63.4375 Z M 171.277344 77.292969 " clip-rule="nonzero"/></clipPath><clipPath id="c227721bc1"><path d="M 171.277344 77.292969 L 146.347656 49.703125 L 161.675781 35.851562 L 186.609375 63.4375 Z M 171.277344 77.292969 " clip-rule="nonzero"/></clipPath><clipPath id="e072d1e828"><path d="M 111 41 L 172 41 L 172 83 L 111 83 Z M 111 41 " clip-rule="nonzero"/></clipPath><clipPath id="dcfe9f86f2"><path d="M 171.289062 60.464844 L 119.109375 82.144531 L 111.183594 63.0625 L 163.359375 41.382812 Z M 171.289062 60.464844 " clip-rule="nonzero"/></clipPath><clipPath id="471de73350"><path d="M 171.289062 60.464844 L 119.175781 82.117188 L 111.246094 63.035156 L 163.359375 41.382812 Z M 171.289062 60.464844 " clip-rule="nonzero"/></clipPath><clipPath id="37cd823db6"><path d="M 109.039062 62.234375 L 153.972656 62.234375 L 153.972656 165.046875 L 109.039062 165.046875 Z M 109.039062 62.234375 " clip-rule="nonzero"/></clipPath><clipPath id="1de7e305c7"><path d="M 142.964844 63.667969 L 187.503906 63.667969 L 187.503906 176.53125 L 142.964844 176.53125 Z M 142.964844 63.667969 " clip-rule="nonzero"/></clipPath><clipPath id="cd1e783bc9"><path d="M 58.460938 216.339844 L 98.765625 216.339844 L 98.765625 242.675781 L 58.460938 242.675781 Z M 58.460938 216.339844 " clip-rule="nonzero"/></clipPath><clipPath id="03f54f0fa9"><path d="M 69 179 L 207 179 L 207 232 L 69 232 Z M 69 179 " clip-rule="nonzero"/></clipPath><clipPath id="ca7090e623"><path d="M 69.519531 216.90625 L 202.152344 179.664062 L 206.304688 194.445312 L 73.671875 231.6875 Z M 69.519531 216.90625 " clip-rule="nonzero"/></clipPath><clipPath id="8ffbb885cd"><path d="M 69.519531 216.90625 L 202.144531 179.667969 L 206.292969 194.449219 L 73.671875 231.6875 Z M 69.519531 216.90625 " clip-rule="nonzero"/></clipPath><clipPath id="63902d3d2d"><path d="M 171 175 L 313 175 L 313 243 L 171 243 Z M 171 175 " clip-rule="nonzero"/></clipPath><clipPath id="fb138d3363"><path d="M 179.753906 175.5625 L 312.976562 210.925781 L 304.515625 242.800781 L 171.292969 207.4375 Z M 179.753906 175.5625 " clip-rule="nonzero"/></clipPath><clipPath id="6b85222ab9"><path d="M 179.753906 175.5625 L 312.898438 210.90625 L 304.4375 242.777344 L 171.292969 207.4375 Z M 179.753906 175.5625 " clip-rule="nonzero"/></clipPath><clipPath id="3fcd55bedc"><path d="M 128.664062 233.488281 L 283.925781 233.488281 L 283.925781 246.347656 L 128.664062 246.347656 Z M 128.664062 233.488281 " clip-rule="nonzero"/></clipPath><clipPath id="9414059f0f"><path d="M 85 148 L 181 148 L 181 218 L 85 218 Z M 85 148 " clip-rule="nonzero"/></clipPath><clipPath id="ec949a70eb"><path d="M 98.988281 148.558594 L 180.808594 174.882812 L 167.167969 217.28125 L 85.347656 190.960938 Z M 98.988281 148.558594 " clip-rule="nonzero"/></clipPath><clipPath id="0f87f30691"><path d="M 98.988281 148.558594 L 180.703125 174.847656 L 167.0625 217.25 L 85.347656 190.960938 Z M 98.988281 148.558594 " clip-rule="nonzero"/></clipPath><clipPath id="d3d3991b6c"><path d="M 76.445312 165.707031 L 109.6875 165.707031 L 109.6875 244.675781 L 76.445312 244.675781 Z M 76.445312 165.707031 " clip-rule="nonzero"/></clipPath><clipPath id="b5c2872b07"><path d="M 58.042969 216.257812 L 317.785156 216.257812 L 317.785156 242.777344 L 58.042969 242.777344 Z M 58.042969 216.257812 " clip-rule="nonzero"/></clipPath><clipPath id="d033e6d2dd"><path d="M 84 207 L 318 207 L 318 222 L 84 222 Z M 84 207 " clip-rule="nonzero"/></clipPath><clipPath id="6dc96b27bc"><path d="M 84.53125 207.226562 L 317.808594 211.777344 L 317.617188 221.683594 L 84.335938 217.132812 Z M 84.53125 207.226562 " clip-rule="nonzero"/></clipPath><clipPath id="4a6b1b635b"><path d="M 84.53125 207.226562 L 317.785156 211.777344 L 317.59375 221.683594 L 84.335938 217.132812 Z M 84.53125 207.226562 " clip-rule="nonzero"/></clipPath><clipPath id="7d57af1d1b"><path d="M 186.605469 80.699219 L 242.746094 80.699219 L 242.746094 194.347656 L 186.605469 194.347656 Z M 186.605469 80.699219 " clip-rule="nonzero"/></clipPath><clipPath id="a88e2405f0"><path d="M 58 32.363281 L 298 32.363281 L 298 257 L 58 257 Z M 58 32.363281 " clip-rule="nonzero"/></clipPath><clipPath id="bf8781ad5a"><path d="M 224.996094 58.453125 C 224.8125 59 224.753906 79.511719 224.761719 105.890625 L 188.171875 126.394531 L 188.171875 79.085938 Z M 162.371094 105.917969 L 162.371094 95.648438 L 147.933594 99.511719 L 135.746094 102.800781 L 133.625 103.378906 L 109.074219 109.988281 L 109.074219 118.042969 L 134.703125 112.1875 Z M 162.371094 126.738281 L 162.371094 116.734375 L 147.71875 119.308594 L 135.382812 121.5 L 133.242188 121.886719 L 109.074219 126.171875 L 109.074219 134.824219 L 134.683594 130.921875 Z M 162.371094 85.097656 L 162.371094 74.566406 L 148.144531 79.71875 L 136.109375 84.097656 L 134.011719 84.871094 L 109.074219 93.941406 L 109.074219 101.265625 L 134.722656 93.460938 Z M 134.660156 149.648438 L 162.371094 147.554688 L 162.371094 137.816406 L 147.507812 139.105469 L 135.015625 140.199219 L 132.863281 140.394531 L 109.078125 142.476562 L 109.078125 151.488281 L 109.359375 151.578125 Z M 272.117188 79.359375 L 272.117188 184.570312 L 297.65625 196.085938 L 297.65625 110.335938 Z M 162.371094 64.277344 L 162.371094 53.480469 L 148.359375 59.921875 L 136.476562 65.398438 L 134.390625 66.363281 L 109.070312 78.027344 L 109.070312 84.492188 L 134.742188 74.738281 Z M 162.351562 43.441406 L 162.371094 32.398438 L 148.574219 40.128906 L 134.773438 47.863281 L 109.074219 62.261719 L 109.074219 67.714844 L 134.765625 56.007812 Z M 200.46875 193.726562 L 175.359375 199.242188 L 153.710938 203.996094 L 115.414062 212.410156 L 79.039062 220.402344 L 76.351562 220.992188 L 58.011719 225.019531 L 58.011719 228.90625 L 134.304688 218.042969 L 145.199219 216.492188 L 175.363281 212.199219 L 200.472656 208.621094 L 200.585938 208.636719 L 200.585938 193.699219 Z M 200.46875 166.039062 L 187.867188 170.429688 L 183.839844 171.839844 L 175.359375 174.796875 L 173.0625 175.597656 L 98.933594 201.449219 L 76.347656 209.332031 L 58.007812 215.730469 L 58.007812 219.785156 L 76.347656 215.046875 L 94.550781 210.347656 L 102.011719 208.417969 L 161.089844 193.164062 L 175.355469 189.480469 L 200.464844 182.996094 L 200.578125 183.019531 L 200.578125 166.078125 Z M 175.359375 223.164062 L 58.007812 232.789062 L 58.007812 236.488281 L 175.359375 234.429688 L 200.46875 233.988281 L 200.582031 233.992188 L 200.582031 221.101562 L 200.46875 221.109375 Z M 132.289062 158.902344 L 162.03125 168.398438 L 162.101562 168.367188 L 162.105469 165.371094 L 162.109375 162.132812 L 162.113281 158.898438 L 132.289062 158.898438 Z M 175.359375 243.449219 L 58.007812 239.933594 L 58.007812 243.441406 L 200.46875 256.199219 L 200.582031 256.195312 L 200.582031 244.207031 L 200.46875 244.203125 Z M 175.359375 243.449219 " clip-rule="nonzero"/></clipPath><linearGradient x1="342.592638" gradientTransform="matrix(0.410192, 0, 0, 0.410192, 57.214675, 32.397859)" y1="-26.316126" x2="277.58507" gradientUnits="userSpaceOnUse" y2="575.381823" id="8b9f13329f"><stop stop-opacity="1" stop-color="rgb(77.661133%, 59.085083%, 22.087097%)" offset="0"/><stop stop-opacity="1" stop-color="rgb(77.615356%, 59.01947%, 22.03064%)" offset="0.103695"/><stop stop-opacity="1" stop-color="rgb(77.56958%, 58.953857%, 21.974182%)" offset="0.5"/><stop stop-opacity="1" stop-color="rgb(77.523804%, 58.886719%, 21.917725%)" offset="0.896305"/><stop stop-opacity="1" stop-color="rgb(77.478027%, 58.821106%, 21.861267%)" offset="1"/></linearGradient><clipPath id="2584099a73"><path d="M 76 32.363281 L 317.464844 32.363281 L 317.464844 257 L 76 257 Z M 76 32.363281 " clip-rule="nonzero"/></clipPath></defs><g clip-path="url(#959f58e678)"><g clip-path="url(#70b1a02279)"><g clip-path="url(#a8f7db7b63)"><path fill="#222222" d="M 226.164062 73.742188 L 218.355469 63.445312 L 224.632812 58.6875 L 232.441406 68.984375 Z M 226.164062 73.742188 " fill-opacity="1" fill-rule="nonzero"/></g></g></g><g clip-path="url(#86411c02b6)"><g clip-path="url(#6248564bb5)"><g clip-path="url(#9629c2e236)"><path fill="#222222" d="M 175.949219 85.863281 L 222.992188 60.136719 L 230.359375 73.609375 L 183.316406 99.335938 Z M 175.949219 85.863281 " fill-opacity="1" fill-rule="nonzero"/></g></g></g><g clip-path="url(#a7a52baf0f)"><path fill="#222222" d="M 222.710938 113.636719 L 222.710938 60.011719 L 225.972656 60.011719 L 225.972656 113.636719 Z M 222.710938 113.636719 " fill-opacity="1" fill-rule="nonzero"/></g><g clip-path="url(#b95089e29d)"><path fill="#222222" d="M 215.847656 196.28125 L 215.847656 79.398438 L 271.988281 79.398438 L 271.988281 196.28125 Z M 215.847656 196.28125 " fill-opacity="1" fill-rule="nonzero"/></g><g clip-path="url(#5490d6b5a9)"><path fill="#222222" d="M 270.925781 205.007812 L 270.925781 110.671875 L 297.4375 110.671875 L 297.4375 205.007812 Z M 270.925781 205.007812 " fill-opacity="1" fill-rule="nonzero"/></g><g clip-path="url(#8c8192c78e)"><g clip-path="url(#f16ac99f69)"><g clip-path="url(#c227721bc1)"><path fill="#222222" d="M 171.277344 77.292969 L 146.328125 49.6875 L 161.660156 35.832031 L 186.609375 63.4375 Z M 171.277344 77.292969 " fill-opacity="1" fill-rule="nonzero"/></g></g></g><g clip-path="url(#e072d1e828)"><g clip-path="url(#dcfe9f86f2)"><g clip-path="url(#471de73350)"><path fill="#222222" d="M 171.289062 60.464844 L 119.183594 82.113281 L 111.257812 63.03125 L 163.359375 41.382812 Z M 171.289062 60.464844 " fill-opacity="1" fill-rule="nonzero"/></g></g></g><g clip-path="url(#37cd823db6)"><path fill="#222222" d="M 109.039062 165.046875 L 109.039062 62.191406 L 153.972656 62.191406 L 153.972656 165.046875 Z M 109.039062 165.046875 " fill-opacity="1" fill-rule="nonzero"/></g><g clip-path="url(#1de7e305c7)"><path fill="#222222" d="M 142.964844 176.53125 L 142.964844 63.613281 L 187.503906 63.613281 L 187.503906 176.53125 Z M 142.964844 176.53125 " fill-opacity="1" fill-rule="nonzero"/></g><g clip-path="url(#cd1e783bc9)"><path fill="#222222" d="M 58.460938 216.339844 L 98.785156 216.339844 L 98.785156 242.675781 L 58.460938 242.675781 Z M 58.460938 216.339844 " fill-opacity="1" fill-rule="nonzero"/></g><g clip-path="url(#03f54f0fa9)"><g clip-path="url(#ca7090e623)"><g clip-path="url(#8ffbb885cd)"><path fill="#222222" d="M 69.519531 216.90625 L 202.152344 179.664062 L 206.304688 194.445312 L 73.671875 231.6875 Z M 69.519531 216.90625 " fill-opacity="1" fill-rule="nonzero"/></g></g></g><g clip-path="url(#63902d3d2d)"><g clip-path="url(#fb138d3363)"><g clip-path="url(#6b85222ab9)"><path fill="#222222" d="M 179.753906 175.5625 L 312.851562 210.894531 L 304.390625 242.765625 L 171.292969 207.4375 Z M 179.753906 175.5625 " fill-opacity="1" fill-rule="nonzero"/></g></g></g><g clip-path="url(#3fcd55bedc)"><path fill="#222222" d="M 128.664062 233.488281 L 283.929688 233.488281 L 283.929688 246.347656 L 128.664062 246.347656 Z M 128.664062 233.488281 " fill-opacity="1" fill-rule="nonzero"/></g><g clip-path="url(#9414059f0f)"><g clip-path="url(#ec949a70eb)"><g clip-path="url(#0f87f30691)"><path fill="#222222" d="M 98.988281 148.558594 L 180.644531 174.828125 L 167.003906 217.230469 L 85.347656 190.960938 Z M 98.988281 148.558594 " fill-opacity="1" fill-rule="nonzero"/></g></g></g><g clip-path="url(#d3d3991b6c)"><path fill="#222222" d="M 109.6875 165.707031 L 109.6875 244.648438 L 76.449219 244.648438 L 76.449219 165.707031 Z M 109.6875 165.707031 " fill-opacity="1" fill-rule="nonzero"/></g><g clip-path="url(#b5c2872b07)"><path fill="#222222" d="M 58.042969 216.257812 L 317.746094 216.257812 L 317.746094 242.777344 L 58.042969 242.777344 Z M 58.042969 216.257812 " fill-opacity="1" fill-rule="nonzero"/></g><g clip-path="url(#d033e6d2dd)"><g clip-path="url(#6dc96b27bc)"><g clip-path="url(#4a6b1b635b)"><path fill="#222222" d="M 84.53125 207.226562 L 317.769531 211.777344 L 317.578125 221.683594 L 84.335938 217.132812 Z M 84.53125 207.226562 " fill-opacity="1" fill-rule="nonzero"/></g></g></g><g clip-path="url(#7d57af1d1b)"><path fill="#222222" d="M 186.605469 194.347656 L 186.605469 80.753906 L 242.746094 80.753906 L 242.746094 194.347656 Z M 186.605469 194.347656 " fill-opacity="1" fill-rule="nonzero"/></g><g clip-path="url(#a88e2405f0)"><g clip-path="url(#bf8781ad5a)"><path fill="url(#8b9f13329f)" d="M 58.007812 32.398438 L 58.007812 256.199219 L 297.65625 256.199219 L 297.65625 32.398438 Z M 58.007812 32.398438 " fill-rule="nonzero"/></g></g><g clip-path="url(#2584099a73)"><path fill="#ffe5a6" d="M 242.835938 95.769531 L 225 105.761719 L 225 58.453125 L 242.835938 80.085938 Z M 162.371094 43.460938 L 187.867188 66.640625 L 187.867188 63.316406 L 162.371094 32.398438 Z M 162.371094 64.277344 L 187.867188 83.59375 L 187.867188 79.246094 L 162.371094 53.480469 Z M 162.371094 85.097656 L 187.867188 100.554688 L 187.867188 95.183594 L 162.371094 74.566406 Z M 162.371094 105.917969 L 187.867188 117.507812 L 187.867188 111.109375 L 162.371094 95.648438 Z M 162.371094 126.738281 L 178.71875 131.691406 L 187.371094 126.839844 L 162.367188 116.734375 L 162.367188 126.738281 Z M 162.371094 147.554688 L 175.359375 149.523438 L 175.359375 140.441406 L 162.371094 137.816406 Z M 162.113281 168.359375 L 175.359375 162.800781 L 175.359375 158.898438 L 162.113281 158.898438 Z M 76.347656 204.351562 L 98.933594 194.871094 L 98.933594 148.253906 L 76.347656 164.941406 Z M 297.65625 203.285156 L 272.117188 193.496094 L 271.828125 193.386719 L 200.582031 166.078125 L 200.582031 183.019531 L 271.839844 202.058594 L 272.117188 202.132812 L 297.65625 208.953125 L 317.78125 214.332031 L 317.78125 211 Z M 278.566406 212.507812 L 272.117188 210.953125 L 271.855469 210.894531 L 200.582031 193.703125 L 200.582031 208.640625 L 200.671875 208.625 L 271.871094 219.097656 L 297.65625 222.890625 L 317.78125 225.851562 L 317.78125 221.96875 L 297.65625 217.117188 Z M 271.890625 228.210938 L 200.582031 221.097656 L 200.582031 233.988281 L 200.671875 233.984375 L 271.90625 235.503906 L 297.65625 236.054688 L 317.78125 236.484375 L 317.78125 232.785156 L 297.65625 230.777344 Z M 271.921875 242.863281 L 200.800781 244.214844 L 200.582031 244.203125 L 200.582031 256.191406 L 297.65625 246.351562 L 317.78125 244.3125 L 317.78125 241.992188 L 297.65625 242.375 Z M 271.921875 242.863281 " fill-opacity="1" fill-rule="nonzero"/></g><g fill="#d7af4d" fill-opacity="1"><g transform="translate(53.931508, 304.224472)"><g><path d="M 2.515625 0 L 2.515625 -31.21875 L 12.15625 -31.21875 C 15.414062 -31.21875 17.890625 -30.488281 19.578125 -29.03125 C 21.273438 -27.582031 22.125 -25.457031 22.125 -22.65625 C 22.125 -21.070312 21.773438 -19.707031 21.078125 -18.5625 C 20.378906 -17.414062 19.421875 -16.582031 18.203125 -16.0625 C 19.597656 -15.65625 20.675781 -14.847656 21.4375 -13.640625 C 22.195312 -12.429688 22.578125 -10.941406 22.578125 -9.171875 C 22.578125 -6.140625 21.742188 -3.851562 20.078125 -2.3125 C 18.410156 -0.769531 16 0 12.84375 0 Z M 8.8125 -13.578125 L 8.8125 -5.234375 L 12.84375 -5.234375 C 13.96875 -5.234375 14.820312 -5.582031 15.40625 -6.28125 C 16 -6.976562 16.296875 -7.972656 16.296875 -9.265625 C 16.296875 -12.066406 15.28125 -13.503906 13.25 -13.578125 Z M 8.8125 -18.15625 L 12.09375 -18.15625 C 14.5625 -18.15625 15.796875 -19.4375 15.796875 -22 C 15.796875 -23.414062 15.507812 -24.429688 14.9375 -25.046875 C 14.363281 -25.660156 13.4375 -25.96875 12.15625 -25.96875 L 8.8125 -25.96875 Z M 8.8125 -18.15625 "/></g></g></g><g fill="#d7af4d" fill-opacity="1"><g transform="translate(78.566654, 304.224472)"><g><path d="M 24.390625 -31.21875 L 24.390625 0 L 18.078125 0 L 18.078125 -25.96875 L 12.28125 -25.96875 L 11.859375 -14.90625 C 11.679688 -11.257812 11.265625 -8.363281 10.609375 -6.21875 C 9.960938 -4.082031 9.015625 -2.515625 7.765625 -1.515625 C 6.515625 -0.515625 4.832031 -0.0078125 2.71875 0 L 1.171875 0 L 1.171875 -5.234375 L 1.90625 -5.296875 C 3.21875 -5.453125 4.160156 -6.3125 4.734375 -7.875 C 5.316406 -9.4375 5.679688 -12.207031 5.828125 -16.1875 L 6.234375 -31.21875 Z M 24.390625 -31.21875 "/></g></g></g><g fill="#d7af4d" fill-opacity="1"><g transform="translate(105.538809, 304.224472)"><g><path d="M 17.40625 -6.390625 L 8.8125 -6.390625 L 7.140625 0 L 0.46875 0 L 10.21875 -31.21875 L 16 -31.21875 L 25.8125 0 L 19.078125 0 Z M 10.1875 -11.640625 L 16.015625 -11.640625 L 13.09375 -22.765625 Z M 10.1875 -11.640625 "/></g></g></g><g fill="#d7af4d" fill-opacity="1"><g transform="translate(131.760551, 304.224472)"><g><path d="M 23.671875 -10.390625 C 23.515625 -6.835938 22.515625 -4.144531 20.671875 -2.3125 C 18.828125 -0.488281 16.222656 0.421875 12.859375 0.421875 C 9.328125 0.421875 6.617188 -0.734375 4.734375 -3.046875 C 2.859375 -5.367188 1.921875 -8.679688 1.921875 -12.984375 L 1.921875 -18.25 C 1.921875 -22.53125 2.894531 -25.832031 4.84375 -28.15625 C 6.789062 -30.476562 9.492188 -31.640625 12.953125 -31.640625 C 16.347656 -31.640625 18.925781 -30.6875 20.6875 -28.78125 C 22.457031 -26.882812 23.46875 -24.160156 23.71875 -20.609375 L 17.390625 -20.609375 C 17.328125 -22.804688 16.984375 -24.320312 16.359375 -25.15625 C 15.742188 -25.988281 14.609375 -26.40625 12.953125 -26.40625 C 11.265625 -26.40625 10.066406 -25.816406 9.359375 -24.640625 C 8.660156 -23.460938 8.289062 -21.523438 8.25 -18.828125 L 8.25 -12.921875 C 8.25 -9.828125 8.59375 -7.695312 9.28125 -6.53125 C 9.976562 -5.375 11.171875 -4.796875 12.859375 -4.796875 C 14.515625 -4.796875 15.65625 -5.195312 16.28125 -6 C 16.914062 -6.8125 17.273438 -8.273438 17.359375 -10.390625 Z M 23.671875 -10.390625 "/></g></g></g><g fill="#d7af4d" fill-opacity="1"><g transform="translate(156.803061, 304.224472)"><g><path d="M 24.390625 0 L 18.109375 0 L 18.109375 -13.359375 L 8.8125 -13.359375 L 8.8125 0 L 2.515625 0 L 2.515625 -31.21875 L 8.8125 -31.21875 L 8.8125 -18.59375 L 18.109375 -18.59375 L 18.109375 -31.21875 L 24.390625 -31.21875 Z M 24.390625 0 "/></g></g></g><g fill="#d7af4d" fill-opacity="1"><g transform="translate(183.753781, 304.224472)"><g><path d="M 17.796875 -31.21875 L 24.09375 -31.21875 L 24.09375 0 L 17.796875 0 L 17.796875 -20.671875 L 8.59375 0 L 2.265625 0 L 2.265625 -31.21875 L 8.59375 -31.21875 L 8.59375 -10.53125 Z M 17.796875 -31.21875 "/></g></g></g><g fill="#d7af4d" fill-opacity="1"><g transform="translate(210.361453, 304.224472)"><g><path d="M 17.796875 -31.21875 L 24.09375 -31.21875 L 24.09375 0 L 17.796875 0 L 17.796875 -20.671875 L 8.59375 0 L 2.265625 0 L 2.265625 -31.21875 L 8.59375 -31.21875 L 8.59375 -10.53125 Z M 20.671875 -39.4375 C 20.671875 -37.539062 19.988281 -36.003906 18.625 -34.828125 C 17.257812 -33.660156 15.460938 -33.078125 13.234375 -33.078125 C 10.984375 -33.078125 9.175781 -33.660156 7.8125 -34.828125 C 6.445312 -36.003906 5.765625 -37.539062 5.765625 -39.4375 L 10.203125 -39.4375 C 10.203125 -38.550781 10.46875 -37.859375 11 -37.359375 C 11.539062 -36.867188 12.285156 -36.625 13.234375 -36.625 C 14.160156 -36.625 14.882812 -36.867188 15.40625 -37.359375 C 15.9375 -37.859375 16.203125 -38.550781 16.203125 -39.4375 Z M 20.671875 -39.4375 "/></g></g></g><g fill="#d7af4d" fill-opacity="1"><g transform="translate(236.969125, 304.224472)"><g/></g></g><g fill="#d7af4d" fill-opacity="1"><g transform="translate(247.089043, 304.224472)"><g><path d="M 27.5 7.671875 L 21.71875 7.671875 L 21.71875 0 L 6.953125 0 L 6.953125 7.65625 L 0.984375 7.65625 L 0.640625 -5.234375 L 2.71875 -5.234375 C 3.632812 -6.078125 4.359375 -7.429688 4.890625 -9.296875 C 5.421875 -11.171875 5.789062 -13.625 6 -16.65625 L 6.875 -31.21875 L 24.828125 -31.21875 L 24.828125 -5.234375 L 28.0625 -5.234375 Z M 9.5 -5.234375 L 18.546875 -5.234375 L 18.546875 -25.96875 L 12.890625 -25.96875 L 12.375 -17.359375 C 12.007812 -12.203125 11.050781 -8.160156 9.5 -5.234375 Z M 9.5 -5.234375 "/></g></g></g><g fill="#d7af4d" fill-opacity="1"><g transform="translate(275.883657, 304.224472)"><g><path d="M 9.09375 0 L 2.78125 0 L 2.78125 -31.21875 L 9.09375 -31.21875 Z M 9.09375 0 "/></g></g></g><g fill="#d7af4d" fill-opacity="1"><g transform="translate(287.761708, 304.224472)"><g><path d="M 10.734375 -31.21875 L 16.640625 -8.640625 L 22.515625 -31.21875 L 30.75 -31.21875 L 30.75 0 L 24.421875 0 L 24.421875 -8.453125 L 25 -21.453125 L 18.765625 0 L 14.46875 0 L 8.234375 -21.453125 L 8.8125 -8.453125 L 8.8125 0 L 2.515625 0 L 2.515625 -31.21875 Z M 10.734375 -31.21875 "/></g></g></g><g fill="#d7af4d" fill-opacity="1"><g transform="translate(10.328777, 335.860526)"><g><path d="M 8.796875 -3.234375 L 4.453125 -3.234375 L 3.609375 0 L 0.234375 0 L 5.171875 -15.78125 L 8.078125 -15.78125 L 13.046875 0 L 9.640625 0 Z M 5.140625 -5.875 L 8.09375 -5.875 L 6.625 -11.5 Z M 5.140625 -5.875 "/></g></g></g><g fill="#d7af4d" fill-opacity="1"><g transform="translate(30.92116, 335.860526)"><g><path d="M 10.15625 -13.125 L 4.484375 -13.125 L 4.484375 0 L 1.296875 0 L 1.296875 -15.78125 L 10.15625 -15.78125 Z M 10.15625 -13.125 "/></g></g></g><g fill="#d7af4d" fill-opacity="1"><g transform="translate(49.108876, 335.860526)"><g><path d="M 9.421875 -6.828125 L 4.453125 -6.828125 L 4.453125 -2.640625 L 10.328125 -2.640625 L 10.328125 0 L 1.265625 0 L 1.265625 -15.78125 L 10.296875 -15.78125 L 10.296875 -13.125 L 4.453125 -13.125 L 4.453125 -9.390625 L 9.421875 -9.390625 Z M 9.421875 -6.828125 "/></g></g></g><g fill="#d7af4d" fill-opacity="1"><g transform="translate(67.33992, 335.860526)"><g><path d="M 12.328125 0 L 9.15625 0 L 9.15625 -6.75 L 4.453125 -6.75 L 4.453125 0 L 1.265625 0 L 1.265625 -15.78125 L 4.453125 -15.78125 L 4.453125 -9.390625 L 9.15625 -9.390625 L 9.15625 -15.78125 L 12.328125 -15.78125 Z M 12.328125 0 "/></g></g></g><g fill="#d7af4d" fill-opacity="1"><g transform="translate(88.300586, 335.860526)"><g><path d="M 1.140625 -15.78125 L 4.328125 -15.78125 L 4.328125 -2.640625 L 9 -2.640625 L 9 -15.78125 L 12.203125 -15.78125 L 12.203125 -2.625 L 14.140625 -2.625 L 13.921875 3.796875 L 10.953125 3.796875 L 10.953125 0 L 1.140625 0 Z M 1.140625 -15.78125 "/></g></g></g><g fill="#d7af4d" fill-opacity="1"><g transform="translate(110.452752, 335.860526)"><g><path d="M 4.59375 0 L 1.40625 0 L 1.40625 -15.78125 L 4.59375 -15.78125 Z M 4.59375 0 "/></g></g></g><g fill="#d7af4d" fill-opacity="1"><g transform="translate(123.798634, 335.860526)"><g><path d="M 7.15625 0 L 7.15625 -5.671875 L 5.484375 -5.671875 L 3.15625 0 L -0.28125 0 L 2.515625 -6.828125 C 1.210938 -7.722656 0.5625 -9.082031 0.5625 -10.90625 C 0.5625 -12.457031 1 -13.65625 1.875 -14.5 C 2.757812 -15.351562 4.003906 -15.78125 5.609375 -15.78125 L 10.34375 -15.78125 L 10.34375 0 Z M 3.765625 -10.65625 C 3.765625 -9.78125 3.914062 -9.144531 4.21875 -8.75 C 4.53125 -8.351562 5.015625 -8.15625 5.671875 -8.15625 L 7.15625 -8.15625 L 7.15625 -13.125 L 5.5625 -13.125 C 4.363281 -13.125 3.765625 -12.300781 3.765625 -10.65625 Z M 3.765625 -10.65625 "/></g></g></g><g fill="#d7af4d" fill-opacity="1"><g transform="translate(142.712077, 335.860526)"><g/></g></g><g fill="#d7af4d" fill-opacity="1"><g transform="translate(155.169748, 335.860526)"><g><path d="M 12.328125 0 L 9.15625 0 L 9.15625 -6.75 L 4.453125 -6.75 L 4.453125 0 L 1.265625 0 L 1.265625 -15.78125 L 4.453125 -15.78125 L 4.453125 -9.390625 L 9.15625 -9.390625 L 9.15625 -15.78125 L 12.328125 -15.78125 Z M 12.328125 0 "/></g></g></g><g fill="#d7af4d" fill-opacity="1"><g transform="translate(176.130414, 335.860526)"><g><path d="M 9.421875 -6.828125 L 4.453125 -6.828125 L 4.453125 -2.640625 L 10.328125 -2.640625 L 10.328125 0 L 1.265625 0 L 1.265625 -15.78125 L 10.296875 -15.78125 L 10.296875 -13.125 L 4.453125 -13.125 L 4.453125 -9.390625 L 9.421875 -9.390625 Z M 9.421875 -6.828125 "/></g></g></g><g fill="#d7af4d" fill-opacity="1"><g transform="translate(194.361458, 335.860526)"><g><path d="M 4.453125 -5.546875 L 4.453125 0 L 1.265625 0 L 1.265625 -15.78125 L 6.640625 -15.78125 C 8.203125 -15.78125 9.445312 -15.296875 10.375 -14.328125 C 11.300781 -13.359375 11.765625 -12.097656 11.765625 -10.546875 C 11.765625 -9.003906 11.304688 -7.785156 10.390625 -6.890625 C 9.472656 -5.992188 8.203125 -5.546875 6.578125 -5.546875 Z M 4.453125 -8.203125 L 6.640625 -8.203125 C 7.242188 -8.203125 7.710938 -8.398438 8.046875 -8.796875 C 8.378906 -9.191406 8.546875 -9.769531 8.546875 -10.53125 C 8.546875 -11.320312 8.375 -11.945312 8.03125 -12.40625 C 7.695312 -12.875 7.242188 -13.113281 6.671875 -13.125 L 4.453125 -13.125 Z M 4.453125 -8.203125 "/></g></g></g><g fill="#d7af4d" fill-opacity="1"><g transform="translate(214.325606, 335.860526)"><g><path d="M 6.25 -8.765625 L 8.375 -15.78125 L 11.796875 -15.78125 L 7.46875 -3.09375 C 6.976562 -1.84375 6.445312 -0.984375 5.875 -0.515625 C 5.3125 -0.046875 4.632812 0.203125 3.84375 0.234375 L 3.5 0.234375 L 2.734375 0.1875 L 2.6875 -2.453125 C 2.757812 -2.429688 2.992188 -2.421875 3.390625 -2.421875 C 3.796875 -2.421875 4.097656 -2.507812 4.296875 -2.6875 C 4.503906 -2.863281 4.6875 -3.269531 4.84375 -3.90625 L 5 -4.46875 L 0.484375 -15.78125 L 3.90625 -15.78125 Z M 6.25 -8.765625 "/></g></g></g><g fill="#d7af4d" fill-opacity="1"><g transform="translate(233.88896, 335.860526)"><g><path d="M 6.203125 -10.359375 L 8.328125 -15.78125 L 11.984375 -15.78125 L 8.28125 -7.953125 L 12.0625 0 L 8.375 0 L 6.203125 -5.515625 L 4.046875 0 L 0.359375 0 L 4.15625 -7.953125 L 0.4375 -15.78125 L 4.078125 -15.78125 Z M 6.203125 -10.359375 "/></g></g></g><g fill="#d7af4d" fill-opacity="1"><g transform="translate(253.647274, 335.860526)"><g><path d="M 12.375 -6.46875 C 12.375 -4.351562 11.875 -2.707031 10.875 -1.53125 C 9.875 -0.363281 8.484375 0.21875 6.703125 0.21875 C 4.929688 0.21875 3.539062 -0.359375 2.53125 -1.515625 C 1.519531 -2.679688 1.007812 -4.304688 1 -6.390625 L 1 -9.09375 C 1 -11.257812 1.5 -12.945312 2.5 -14.15625 C 3.507812 -15.375 4.90625 -15.984375 6.6875 -15.984375 C 8.4375 -15.984375 9.816406 -15.382812 10.828125 -14.1875 C 11.835938 -13 12.351562 -11.328125 12.375 -9.171875 Z M 9.171875 -9.109375 C 9.171875 -10.535156 8.96875 -11.59375 8.5625 -12.28125 C 8.164062 -12.976562 7.539062 -13.328125 6.6875 -13.328125 C 5.84375 -13.328125 5.21875 -12.992188 4.8125 -12.328125 C 4.40625 -11.660156 4.195312 -10.644531 4.1875 -9.28125 L 4.1875 -6.46875 C 4.1875 -5.09375 4.390625 -4.078125 4.796875 -3.421875 C 5.210938 -2.765625 5.847656 -2.4375 6.703125 -2.4375 C 7.535156 -2.4375 8.15625 -2.753906 8.5625 -3.390625 C 8.96875 -4.035156 9.171875 -5.03125 9.171875 -6.375 Z M 9.171875 -9.109375 "/></g></g></g><g fill="#d7af4d" fill-opacity="1"><g transform="translate(274.380465, 335.860526)"><g><path d="M 5.421875 -15.78125 L 8.40625 -4.359375 L 11.375 -15.78125 L 15.53125 -15.78125 L 15.53125 0 L 12.34375 0 L 12.34375 -4.265625 L 12.625 -10.84375 L 9.484375 0 L 7.3125 0 L 4.15625 -10.84375 L 4.453125 -4.265625 L 4.453125 0 L 1.265625 0 L 1.265625 -15.78125 Z M 5.421875 -15.78125 "/></g></g></g><g fill="#d7af4d" fill-opacity="1"><g transform="translate(298.547342, 335.860526)"><g><path d="M 12.375 -6.46875 C 12.375 -4.351562 11.875 -2.707031 10.875 -1.53125 C 9.875 -0.363281 8.484375 0.21875 6.703125 0.21875 C 4.929688 0.21875 3.539062 -0.359375 2.53125 -1.515625 C 1.519531 -2.679688 1.007812 -4.304688 1 -6.390625 L 1 -9.09375 C 1 -11.257812 1.5 -12.945312 2.5 -14.15625 C 3.507812 -15.375 4.90625 -15.984375 6.6875 -15.984375 C 8.4375 -15.984375 9.816406 -15.382812 10.828125 -14.1875 C 11.835938 -13 12.351562 -11.328125 12.375 -9.171875 Z M 9.171875 -9.109375 C 9.171875 -10.535156 8.96875 -11.59375 8.5625 -12.28125 C 8.164062 -12.976562 7.539062 -13.328125 6.6875 -13.328125 C 5.84375 -13.328125 5.21875 -12.992188 4.8125 -12.328125 C 4.40625 -11.660156 4.195312 -10.644531 4.1875 -9.28125 L 4.1875 -6.46875 C 4.1875 -5.09375 4.390625 -4.078125 4.796875 -3.421875 C 5.210938 -2.765625 5.847656 -2.4375 6.703125 -2.4375 C 7.535156 -2.4375 8.15625 -2.753906 8.5625 -3.390625 C 8.96875 -4.035156 9.171875 -5.03125 9.171875 -6.375 Z M 9.171875 -9.109375 "/></g></g></g><g fill="#d7af4d" fill-opacity="1"><g transform="translate(319.280533, 335.860526)"><g><path d="M 11.953125 -5.25 C 11.878906 -3.457031 11.375 -2.097656 10.4375 -1.171875 C 9.507812 -0.242188 8.195312 0.21875 6.5 0.21875 C 4.71875 0.21875 3.347656 -0.363281 2.390625 -1.53125 C 1.441406 -2.707031 0.96875 -4.382812 0.96875 -6.5625 L 0.96875 -9.21875 C 0.96875 -11.382812 1.457031 -13.050781 2.4375 -14.21875 C 3.425781 -15.394531 4.796875 -15.984375 6.546875 -15.984375 C 8.265625 -15.984375 9.566406 -15.503906 10.453125 -14.546875 C 11.347656 -13.585938 11.859375 -12.207031 11.984375 -10.40625 L 8.78125 -10.40625 C 8.757812 -11.519531 8.585938 -12.285156 8.265625 -12.703125 C 7.953125 -13.128906 7.378906 -13.34375 6.546875 -13.34375 C 5.691406 -13.34375 5.085938 -13.046875 4.734375 -12.453125 C 4.378906 -11.859375 4.191406 -10.878906 4.171875 -9.515625 L 4.171875 -6.53125 C 4.171875 -4.96875 4.34375 -3.890625 4.6875 -3.296875 C 5.039062 -2.710938 5.644531 -2.421875 6.5 -2.421875 C 7.332031 -2.421875 7.90625 -2.625 8.21875 -3.03125 C 8.539062 -3.445312 8.726562 -4.1875 8.78125 -5.25 Z M 11.953125 -5.25 "/></g></g></g><g fill="#d7af4d" fill-opacity="1"><g transform="translate(339.277159, 335.860526)"><g><path d="M 11.484375 -13.125 L 7.578125 -13.125 L 7.578125 0 L 4.390625 0 L 4.390625 -13.125 L 0.546875 -13.125 L 0.546875 -15.78125 L 11.484375 -15.78125 Z M 11.484375 -13.125 "/></g></g></g><g fill="#d7af4d" fill-opacity="1"><g transform="translate(358.667204, 335.860526)"><g><path d="M 4.59375 0 L 1.40625 0 L 1.40625 -15.78125 L 4.59375 -15.78125 Z M 4.59375 0 "/></g></g></g></svg>